<svg width="60" height="60" viewBox="0 0 60 60" fill="none" xmlns="http://www.w3.org/2000/svg">
<circle cx="30" cy="30" r="30" fill="#D9D9D9"/>
<path d="M29.5 11.1667C31.9311 11.1667 34.2627 12.1324 35.9818 13.8515C37.7009 15.5706 38.6666 17.9022 38.6666 20.3333C38.6666 22.7645 37.7009 25.0961 35.9818 26.8151C34.2627 28.5342 31.9311 29.5 29.5 29.5C27.0688 29.5 24.7372 28.5342 23.0181 26.8151C21.2991 25.0961 20.3333 22.7645 20.3333 20.3333C20.3333 17.9022 21.2991 15.5706 23.0181 13.8515C24.7372 12.1324 27.0688 11.1667 29.5 11.1667ZM29.5 34.0833C39.6291 34.0833 47.8333 38.1854 47.8333 43.25V47.8333H11.1666V43.25C11.1666 38.1854 19.3708 34.0833 29.5 34.0833Z" fill="#585858"/>
</svg>
