<svg width="60" height="60" viewBox="0 0 60 60" fill="none" xmlns="http://www.w3.org/2000/svg">
<circle cx="30" cy="30" r="30" fill="#D9D9D9"/>
<path d="M29.8686 12.8537C25.5626 12.8537 22.072 16.9291 22.072 21.9564C22.072 25.443 23.751 28.471 26.2165 30L23.3574 31.325L15.7491 34.8537C15.0141 35.2212 14.6473 35.8445 14.6473 36.7265V45.1058C14.7078 46.1534 15.3363 47.1298 16.3555 47.1463H43.423C44.5865 47.0452 45.175 46.108 45.1865 45.1058V36.7265C45.1865 35.8445 44.8197 35.2212 44.0847 34.8537L36.7519 31.325L33.7045 29.8813C36.0688 28.3179 37.6653 25.3553 37.6653 21.9564C37.6653 16.9291 34.1746 12.8537 29.8686 12.8537ZM17.2926 16.0547C15.4396 16.125 13.971 16.9269 12.8553 18.2045C11.6211 19.7428 11.0194 21.5691 11.0078 23.3859C11.0836 26.0725 12.2857 28.6158 14.4257 29.9462L5.88179 33.9165C5.29375 34.137 5 34.6515 5 35.46V42.185C5.04592 43.0768 5.509 43.8264 6.37729 43.8393H12.0558V36.7265C12.1498 34.8249 13.0428 33.2878 14.6473 32.5377L20.3243 29.837C20.7653 29.5797 21.188 29.23 21.5923 28.789C19.2516 25.1775 18.9266 20.8519 20.4351 17.0473C19.454 16.4468 18.3513 16.061 17.2926 16.0547ZM42.6504 16.0547C41.4386 16.08 40.3187 16.5263 39.3988 17.1565C40.8661 20.9955 40.4614 25.3238 38.2953 28.6782C38.7731 29.2294 39.2705 29.6522 39.785 29.9463L45.2419 32.5377C46.9043 33.4494 47.7615 35.0001 47.778 36.7265V43.8393H53.6211C54.5821 43.7564 54.9917 42.9899 55 42.185V35.4601C55 34.725 54.7063 34.2106 54.1182 33.9165L45.6836 29.8908C47.871 28.278 48.9694 25.8608 48.9906 23.3859C48.9325 21.4271 48.3341 19.6083 47.1432 18.2045C45.8988 16.8545 44.3553 16.069 42.6504 16.0547Z" fill="#585858"/>
</svg>
